<?xml version="1.0" encoding="utf-8"?>
<!-- Generator: Adobe Illustrator 19.1.0, SVG Export Plug-In . SVG Version: 6.00 Build 0)  -->
<svg version="1.1" id="Layer_1" xmlns="http://www.w3.org/2000/svg" xmlns:xlink="http://www.w3.org/1999/xlink" x="0px" y="0px" fill="#000000"
	 viewBox="0 0 64 64" enable-background="new 0 0 64 64" xml:space="preserve">
<g id="Equal-sign">
	<path d="M43,37H21c-0.5527,0-1,0.4473-1,1s0.4473,1,1,1h22c0.5527,0,1-0.4473,1-1S43.5527,37,43,37z"/>
	<path d="M43,27H21c-0.5527,0-1,0.4473-1,1s0.4473,1,1,1h22c0.5527,0,1-0.4473,1-1S43.5527,27,43,27z"/>
	<path d="M32,0c-17.6730995,0-32,14.3268003-32,32c0,17.6730995,14.3268995,32,32,32s32-14.3269005,32-32
		C64,14.3268003,49.673111,0,32,0z M32,62c-16.542099,0-30-13.457901-30-30S15.4579,2,32,2c16.5419998,0,30,13.4579,30,30
		S48.5419998,62,32,62z"/>
</g>
</svg>
